<svg width="160" height="68" viewBox="0 0 160 68" fill="none" xmlns="http://www.w3.org/2000/svg">
<g clip-path="url(#clip0_85_474)">
<path d="M16.2743 20.8724L14.9797 20.442C14.4082 20.2354 14.1881 20.3501 13.9252 20.924C13.6311 21.6337 13.113 22.2267 12.4505 22.6119C11.7881 22.9971 11.018 23.1531 10.2586 23.0561C7.78947 23.0561 6.42484 21.8868 6.42484 19.7777V14.7116C6.42484 12.6025 7.7909 11.4561 10.2586 11.4561C11.0158 11.3532 11.7856 11.5042 12.4486 11.8855C13.1116 12.2669 13.6306 12.8573 13.9252 13.5652C14.141 14.1147 14.381 14.2295 14.9554 14.0459L16.2729 13.6154C16.8002 13.4318 16.9674 13.0889 16.7759 12.6111C15.8414 10.0659 13.6609 8.7832 10.2572 8.7832C5.87186 8.7832 3.39844 11.053 3.39844 14.7431V19.7648C3.39844 23.4951 5.86615 25.7477 10.2572 25.7477C13.6866 25.7477 15.8671 24.4641 16.7987 21.8968C16.848 21.7964 16.8731 21.6858 16.8721 21.5738C16.8711 21.4619 16.844 21.3518 16.7931 21.2522C16.7421 21.1526 16.6687 21.0664 16.5786 21.0005C16.4885 20.9345 16.3843 20.8907 16.2743 20.8724Z" fill="#353535"/>
<path d="M26.0954 13.1709C23.6505 13.1709 21.9973 13.9729 21.1342 15.5555C20.8698 16.0146 21.0141 16.3575 21.5414 16.587L22.5002 16.9758C23.0518 17.1595 23.1718 17.1193 23.5304 16.6315C23.8228 16.2492 24.207 15.9476 24.6471 15.7551C25.0872 15.5627 25.5689 15.4856 26.0468 15.5311C27.7729 15.5311 28.4431 16.3101 28.4431 17.8008V18.4436C27.077 18.3747 26.3097 18.3288 26.1425 18.3288C22.2358 18.3288 20.7027 19.2915 20.7027 22.019C20.6596 22.5426 20.7407 23.0691 20.9394 23.5552C21.1381 24.0412 21.4487 24.4731 21.8458 24.8153C23.1124 25.5575 24.5804 25.8785 26.0396 25.7321C27.5016 25.7977 28.9634 25.5959 30.3535 25.1367C31.0251 24.8612 31.2108 24.6317 31.2108 23.8297V17.8927C31.2308 14.752 29.5247 13.1709 26.0954 13.1709ZM28.4445 23.0276C28.4445 23.1883 28.3487 23.2801 28.1815 23.349C27.3903 23.4858 26.588 23.5473 25.7853 23.5327C24.0363 23.5327 23.5333 23.0276 23.5333 21.9975C23.5333 20.9931 24.1049 20.5068 25.8338 20.5068C25.9053 20.5068 26.7684 20.5527 28.4459 20.6215L28.4445 23.0276Z" fill="#353535"/>
<path d="M42.3007 13.1709H41.5333C40.0211 13.1706 38.5176 13.4024 37.0751 13.8581C36.3078 14.1566 36.1406 14.432 36.1406 15.1652V24.679C36.1406 25.2056 36.3321 25.3964 36.8836 25.3964H38.2011C38.7527 25.3964 38.9155 25.2128 38.9155 24.679V16.1509C38.9113 16.1166 38.9143 16.0818 38.9244 16.0487C38.9345 16.0157 38.9515 15.9852 38.9742 15.9592C38.9968 15.9332 39.0247 15.9122 39.056 15.8978C39.0872 15.8834 39.1212 15.8757 39.1556 15.8754C39.8978 15.6773 40.664 15.5846 41.4319 15.5999H42.2892C42.8408 15.5999 43.0323 15.4163 43.0323 14.8825V13.8782C43.0451 13.3316 42.8522 13.1709 42.3007 13.1709Z" fill="#353535"/>
<path d="M53.734 13.5141H51.0019V11.4509C51.0019 10.9243 50.8104 10.7637 50.2589 10.7637H48.9643C48.4127 10.7637 48.2212 10.9243 48.2212 11.4509V13.5141H46.568C46.0164 13.5141 45.8535 13.6748 45.8535 14.2013V15.2559C45.8535 15.7824 46.0207 15.9732 46.568 15.9732H48.2184V20.672C48.1336 21.3946 48.2008 22.127 48.4154 22.822C48.63 23.5169 48.9873 24.1589 49.4644 24.7066C50.7051 25.559 52.2175 25.917 53.7068 25.7109C54.2784 25.6879 54.4742 25.5273 54.4742 24.9777V23.9232C54.4742 23.3723 54.2827 23.2058 53.7068 23.2058C52.9587 23.294 52.2036 23.1152 51.5735 22.7008C51.3431 22.4007 51.1739 22.0579 51.0758 21.692C50.9777 21.3261 50.9526 20.9444 51.0019 20.5688V15.9618H53.734C54.2855 15.9618 54.477 15.7781 54.477 15.2444V14.1899C54.477 13.6748 54.2855 13.5141 53.734 13.5141Z" fill="#353535"/>
<path d="M60.1329 11.7951H60.9245C60.9827 11.8031 61.0419 11.7976 61.0976 11.7788C61.1533 11.7601 61.2039 11.7286 61.2454 11.6869C61.287 11.6452 61.3183 11.5944 61.337 11.5384C61.3557 11.4825 61.3613 11.423 61.3532 11.3646C61.3532 10.7907 61.5447 10.4937 61.9247 10.4937C62.4313 10.5737 62.9049 10.796 63.2908 11.1351C63.7818 11.5341 64.3861 11.7667 65.0169 11.7993C66.4301 11.7993 67.0531 11.0662 67.0531 9.23257C67.0531 8.93414 66.9102 8.80214 66.5973 8.80214H65.83C65.5185 8.80214 65.3741 8.94562 65.3741 9.23257C65.3741 9.80647 65.1826 10.1035 64.8226 10.1035C64.3245 10.0056 63.8614 9.7763 63.4808 9.43917C62.9568 9.03644 62.3187 8.81182 61.659 8.79785C60.3415 8.79785 59.6699 9.53101 59.6699 11.3646C59.6828 11.6573 59.8257 11.7951 60.1329 11.7951Z" fill="#353535"/>
<path d="M63.4875 13.1709C61.0426 13.1709 59.3894 13.9729 58.5263 15.5555C58.2634 16.0146 58.4063 16.3575 58.9335 16.587L59.8924 16.9758C60.4439 17.1595 60.5625 17.1193 60.9226 16.6315C61.2149 16.2492 61.5992 15.9476 62.0393 15.7551C62.4794 15.5627 62.961 15.4856 63.4389 15.5311C65.1636 15.5311 65.8352 16.3101 65.8352 17.8008V18.4436C64.4692 18.3747 63.7033 18.3288 63.5346 18.3288C59.628 18.3288 58.0948 19.2915 58.0948 22.019C58.0525 22.5432 58.1348 23.0701 58.3347 23.5562C58.5347 24.0423 58.8467 24.4738 59.2451 24.8153C60.5116 25.5576 61.9796 25.8786 63.4389 25.7321C64.9009 25.7978 66.3626 25.596 67.7528 25.1367C68.4244 24.8612 68.6101 24.6317 68.6101 23.8297V17.8927C68.6159 14.752 66.9169 13.1709 63.4875 13.1709ZM65.8352 23.0276C65.8352 23.1883 65.7394 23.2801 65.5723 23.349C64.781 23.4858 63.9787 23.5473 63.176 23.5327C61.427 23.5327 60.924 23.0276 60.924 21.9975C60.924 20.9931 61.4956 20.5068 63.2246 20.5068C63.2974 20.5068 64.1591 20.5527 65.8366 20.6215L65.8352 23.0276Z" fill="#353535"/>
<path d="M78.6826 13.1709C75.1604 13.1709 73.1699 14.8926 73.1699 17.7621V21.1553C73.1699 24.0248 75.1589 25.7465 78.6826 25.7465C82.2292 25.7465 84.2183 24.0248 84.2183 21.1553V17.7621C84.2183 14.8897 82.2292 13.1709 78.6826 13.1709ZM81.439 21.1481C81.439 22.524 80.4387 23.3261 78.6826 23.3261C76.9265 23.3261 75.9506 22.524 75.9506 21.1481V17.7549C75.9506 16.356 76.9336 15.577 78.6826 15.577C80.4316 15.577 81.439 16.356 81.439 17.7549V21.1481Z" fill="#353535"/>
<path d="M106.148 8.4248H104.829C104.279 8.4248 104.114 8.60845 104.114 9.14218V13.4751C103.172 13.2945 102.216 13.1947 101.256 13.1767C97.9256 13.1767 96.248 14.8496 96.248 17.9673V21.108C96.248 24.2028 97.9741 25.7379 101.449 25.7379C102.974 25.751 104.489 25.5031 105.93 25.0048C106.698 24.7064 106.889 24.4782 106.889 23.7436V9.135C106.895 8.60988 106.699 8.4248 106.148 8.4248ZM104.11 22.7981C104.109 22.8552 104.089 22.9103 104.055 22.9557C104.021 23.001 103.973 23.0343 103.918 23.0507C103.197 23.2261 102.456 23.3109 101.714 23.3032C99.916 23.3032 99.0287 22.5471 99.0287 21.0076V18.0276C99.0287 16.4006 99.9404 15.5971 101.785 15.5971C102.568 15.6164 103.347 15.7164 104.11 15.8956V22.7981Z" fill="#353535"/>
<path d="M121.607 20.2953C122.321 20.2953 122.685 19.9739 122.685 19.3096V17.9107C122.685 15.1374 120.792 13.166 117.15 13.166C113.532 13.166 111.59 14.9078 111.59 18.1173V20.8218C111.59 23.8248 113.363 25.7273 117.103 25.7273C119.619 25.7273 121.345 24.9936 122.28 23.5264C122.64 22.9998 122.544 22.6325 121.994 22.3786L121.155 21.9481C120.583 21.6497 120.316 21.6956 119.933 22.2236C119.603 22.6494 119.17 22.9842 118.675 23.1967C118.181 23.4092 117.641 23.4925 117.106 23.4388C115.357 23.4388 114.373 22.6368 114.373 21.1432V20.2953H121.607ZM114.369 17.7501C114.369 16.2608 115.351 15.4114 117.148 15.4114C118.97 15.4114 119.905 16.2593 119.905 17.7501V18.2551H114.369V17.7501Z" fill="#353535"/>
<path d="M78.4967 33.1426C74.7633 33.1366 71.0516 33.7126 67.4941 34.85C67.4941 38.6435 67.4941 54.7686 67.4941 57.1173C67.4941 61.6956 70.1262 65.1519 79.8856 65.1519C81.9779 65.159 84.0507 64.7493 85.9842 63.9466C87.9176 63.1439 89.6733 61.9641 91.1496 60.4755C92.6259 58.9869 93.7935 57.219 94.5847 55.2743C95.376 53.3295 95.7753 51.2465 95.7594 49.1458C95.7694 40.6779 89.4365 33.1426 78.4967 33.1426ZM79.9028 56.7184C76.159 56.8088 75.6932 56.113 75.6932 54.0598C75.6932 52.3984 75.7189 42.0453 75.7189 42.0453C76.7767 41.6756 77.8857 41.4746 79.0054 41.4498C84.521 41.4498 87.436 45.1802 87.436 49.0052C87.4464 51.0283 86.6608 52.9737 85.25 54.4182C83.8392 55.8626 81.9175 56.6893 79.9028 56.7184Z" fill="#353535"/>
<path d="M149.376 45.8229C145.866 44.9348 142.545 44.5789 142.335 43.0725C142.192 42.0423 143.419 41.1556 145.96 41.1556C150.566 41.0501 155.112 42.2286 159.092 44.5603V39.5386C159.092 36.4812 155.772 33.1641 147.286 33.1641C137.791 33.1641 133.898 37.8987 133.898 43.2001C133.898 49.1343 138.281 51.1444 143.957 52.3567C150.407 53.7355 151.563 54.3109 151.563 55.3697C151.563 56.8245 149.409 57.1646 147.94 57.1646C143.335 57.2615 138.792 56.0835 134.809 53.7599C134.809 53.7599 134.791 57.5204 134.789 58.7729C134.789 61.8304 137.881 65.1518 146.194 65.1518C154.26 65.1518 158.318 61.7213 159.483 57.8346C162.468 47.8745 151.688 46.4082 149.376 45.8229Z" fill="#353535"/>
<path d="M47.7698 33.125C44.6153 33.125 41.5316 34.0642 38.9087 35.824C36.2859 37.5837 34.2416 40.0848 33.0344 43.0111C31.8272 45.9374 31.5114 49.1575 32.1268 52.264C32.7422 55.3705 34.2613 58.2241 36.4918 60.4638C38.7224 62.7035 41.5643 64.2287 44.6582 64.8467C47.7521 65.4646 50.9591 65.1474 53.8735 63.9353C56.7878 62.7232 59.2788 60.6706 61.0314 58.037C62.7839 55.4034 63.7193 52.3071 63.7193 49.1397C63.7193 47.0366 63.3068 44.9541 62.5052 43.0111C61.7037 41.0681 60.5289 39.3027 59.0478 37.8156C57.5668 36.3285 55.8085 35.1489 53.8735 34.344C51.9384 33.5392 49.8644 33.125 47.7698 33.125ZM47.7698 56.7883C46.2632 56.7883 44.7904 56.3397 43.5377 55.4993C42.2851 54.6589 41.3087 53.4643 40.7322 52.0667C40.1556 50.6691 40.0047 49.1312 40.2987 47.6475C40.5926 46.1638 41.3181 44.8009 42.3834 43.7313C43.4488 42.6616 44.8061 41.9331 46.2837 41.638C47.7614 41.3429 49.293 41.4943 50.6849 42.0733C52.0768 42.6522 53.2665 43.6325 54.1036 44.8903C54.9406 46.1481 55.3874 47.6269 55.3874 49.1397C55.3874 51.1682 54.5848 53.1137 53.1562 54.5481C51.7276 55.9825 49.7901 56.7883 47.7698 56.7883Z" fill="#353535"/>
<path d="M115.117 33.125C111.963 33.125 108.879 34.0642 106.256 35.824C103.633 37.5837 101.589 40.0848 100.382 43.0111C99.1748 45.9374 98.859 49.1575 99.4745 52.264C100.09 55.3705 101.609 58.2241 103.839 60.4638C106.07 62.7035 108.912 64.2287 112.006 64.8467C115.1 65.4646 118.307 65.1474 121.221 63.9353C124.135 62.7232 126.626 60.6706 128.379 58.037C130.131 55.4034 131.067 52.3071 131.067 49.1397C131.067 47.0366 130.654 44.9541 129.853 43.0111C129.051 41.0681 127.876 39.3027 126.395 37.8156C124.914 36.3285 123.156 35.1489 121.221 34.344C119.286 33.5392 117.212 33.125 115.117 33.125ZM115.117 56.7883C113.611 56.7883 112.138 56.3397 110.885 55.4993C109.633 54.6589 108.656 53.4643 108.08 52.0667C107.503 50.6691 107.352 49.1312 107.646 47.6475C107.94 46.1638 108.666 44.8009 109.731 43.7313C110.796 42.6616 112.154 41.9331 113.631 41.638C115.109 41.3429 116.641 41.4943 118.033 42.0733C119.425 42.6522 120.614 43.6325 121.451 44.8903C122.288 46.1481 122.735 47.6269 122.735 49.1397C122.735 51.1682 121.932 53.1137 120.504 54.5481C119.075 55.9825 117.138 56.7883 115.117 56.7883Z" fill="#353535"/>
<path d="M31.8758 31.4209C31.8758 31.4209 12.3383 33.8141 5.8282 34.6319C5.07699 34.7299 4.38702 35.0993 3.88735 35.6709C3.38768 36.2426 3.11253 36.9775 3.11328 37.7381V41.3924H13.2257V60.5593C13.2257 63.7387 15.239 64.8707 17.8253 64.8707H21.5891V41.3924H27.2118C28.4503 41.3924 29.6381 40.8984 30.5138 40.0191C31.3895 39.1398 31.8815 37.9472 31.8815 36.7037L31.8758 31.4209Z" fill="#353535"/>
</g>
<defs>
<clipPath id="clip0_85_474">
<rect width="160" height="68" fill="white"/>
</clipPath>
</defs>
</svg>
