<svg width="139" height="38" viewBox="0 0 139 38" fill="none" xmlns="http://www.w3.org/2000/svg">
<g clip-path="url(#clip0_85_494)">
<path d="M16.9928 0.214257C16.9928 0.474426 16.6519 0.612163 16.0011 0.612163C15.7222 0.612163 15.3658 0.719291 15.1953 0.841724C15.0404 0.964156 14.7459 1.07128 14.56 1.07128C14.3741 1.07128 14.0332 1.17841 13.7852 1.30085C13.5528 1.42328 12.8245 1.75997 12.1892 2.08135C10.2678 2.9996 9.462 3.51994 7.80398 4.86669C6.08399 6.27467 4.08508 8.89166 3.06238 11.0954C2.86094 11.5087 2.59751 12.0443 2.48904 12.2739C2.36508 12.4881 2.27211 12.7942 2.27211 12.9625C2.27211 13.1156 2.16364 13.3758 2.03968 13.5288C1.91571 13.6971 1.80724 14.0338 1.80724 14.2787C1.80724 14.5083 1.72977 14.8603 1.6213 15.0439C1.01698 16.1152 1.00148 22.4358 1.59031 23.5989C1.71427 23.8284 1.80724 24.211 1.80724 24.4406C1.80724 24.6702 1.91571 25.0068 2.03968 25.1599C2.16364 25.3282 2.27211 25.5884 2.27211 25.7261C2.27211 25.8792 2.38058 26.1853 2.50454 26.4301C2.61301 26.6597 2.87643 27.1647 3.04688 27.5473C3.23283 27.9299 3.51174 28.435 3.68219 28.6951C3.83715 28.94 4.02309 29.2614 4.08508 29.3838C4.31751 29.8888 6.31642 32.414 6.95173 32.9956C7.94344 33.9291 11.7708 36.4237 12.1892 36.4237C12.2667 36.4237 12.5146 36.5155 12.7625 36.6379C15.3348 37.8776 16.125 38 20.8666 38C24.663 38 25.7167 37.9082 26.9099 37.495C28.351 36.9746 28.7383 36.8369 29.2342 36.6226C29.5286 36.5002 29.885 36.3319 30.009 36.2553C30.1329 36.1788 30.3344 36.087 30.4428 36.0411C30.9232 35.8421 31.0627 35.7809 31.7445 35.383C33.1855 34.5566 33.8828 33.9903 33.8828 33.6536C33.8828 33.47 33.6969 33.1027 33.4645 32.8119C33.2165 32.5364 32.7827 31.9855 32.4882 31.6182C32.1938 31.2356 31.8684 30.9295 31.7754 30.9295C31.6825 30.9142 31.3261 31.0979 30.9852 31.3427C30.1019 31.9396 29.9005 32.062 28.6144 32.6742C27.9791 32.9803 27.2508 33.317 27.0183 33.4394C26.7704 33.5618 26.4295 33.6689 26.2436 33.6689C26.0576 33.6843 25.7322 33.7761 25.5153 33.8985C25.2983 34.0209 24.9265 34.1128 24.663 34.1281C24.4151 34.1281 23.8573 34.2352 23.4389 34.3576C22.5402 34.6331 19.658 34.6637 18.8522 34.4188C18.5578 34.3423 17.969 34.2046 17.5351 34.1281C16.7759 34.0056 16.125 33.822 15.2108 33.4394C14.4515 33.1333 12.5766 32.2151 12.4991 32.1232C12.4526 32.0773 12.1427 31.8784 11.8018 31.6794C10.7791 31.0826 7.86597 28.236 7.85047 27.8228C7.85047 27.7616 7.64903 27.4249 7.4166 27.0576C7.18417 26.6903 6.85876 26.124 6.68831 25.7874C6.53336 25.4507 6.31642 24.9915 6.19246 24.762C6.08399 24.5477 5.99102 24.2416 5.99102 24.0733C5.99102 23.9203 5.88255 23.6601 5.75858 23.507C5.63462 23.3387 5.52615 22.9867 5.52615 22.7418C5.52615 22.4817 5.41769 21.9307 5.29372 21.5175C5.0148 20.6146 4.98381 17.768 5.23174 16.9875C5.32471 16.6967 5.46417 16.1458 5.52615 15.7632C5.65012 15.0133 5.91354 14.2328 6.23894 13.59C6.36291 13.3758 6.45588 13.085 6.45588 12.9625C6.45588 12.8401 6.56435 12.6565 6.68831 12.5493C6.81228 12.4422 6.92074 12.2739 6.92074 12.1514C6.92074 12.0443 7.13768 11.6464 7.38561 11.2791C7.64903 10.8965 7.85047 10.5292 7.85047 10.4374C7.85047 10.3455 7.89696 10.2537 7.97443 10.2231C8.03642 10.1925 8.4393 9.73339 8.88867 9.18244C9.32254 8.63149 9.84938 8.04994 10.0508 7.88159C10.9496 7.1317 12.3751 6.12163 12.5301 6.12163C12.6231 6.12163 12.8245 6.0298 12.9485 5.90737C13.3204 5.58598 14.9939 4.74426 15.2728 4.74426C15.4123 4.74426 15.6602 4.63713 15.8151 4.5147C15.9856 4.39227 16.28 4.28514 16.4814 4.28514C16.6829 4.28514 17.0393 4.19331 17.2717 4.07088C17.6591 3.88723 19.813 3.62706 21.0216 3.62706C22.2457 3.62706 24.3841 3.87193 24.8025 4.07088C25.0504 4.19331 25.4378 4.28514 25.6702 4.28514C25.8872 4.28514 26.2126 4.39227 26.383 4.5147C26.538 4.63713 26.7859 4.72896 26.9099 4.74426C27.1268 4.74426 29.916 6.06041 30.2414 6.32058C30.8302 6.7797 32.1163 7.45308 32.2713 7.39186C32.3798 7.34595 32.5192 7.19291 32.5657 7.05517C32.6122 6.90213 32.8601 6.55014 33.1236 6.25936C33.7434 5.58598 34.0533 4.97382 33.9448 4.68304C33.7589 4.20862 29.1412 1.54571 28.4749 1.53041C28.3355 1.53041 28.0875 1.42328 27.9326 1.30085C27.7621 1.17841 27.4522 1.07128 27.2353 1.07128C27.0183 1.07128 26.6929 0.964156 26.538 0.841724C26.3675 0.719291 25.9647 0.612163 25.6392 0.612163C25.2519 0.612163 24.942 0.505034 24.7405 0.306081C24.4461 0.0153041 24.2292 0 20.7117 0C17.6436 0 16.9928 0.0306081 16.9928 0.214257ZM36.2071 19.1913C36.2071 30.5469 36.2691 37.3572 36.3621 37.4184C36.4396 37.4644 40.5924 37.495 45.5974 37.495C52.152 37.495 54.7552 37.4491 54.9102 37.3113C55.0651 37.1889 55.1116 36.7757 55.0806 35.6738L55.0341 34.2046L47.6738 34.1587C40.9797 34.1281 40.2979 34.0975 40.1275 33.8679C39.9725 33.6689 39.9261 30.1184 39.9261 17.3395V1.07128H36.2071V19.1913ZM56.9246 1.17841C56.8626 1.22433 56.8161 9.35079 56.8161 19.2066C56.8161 34.174 56.8471 37.1736 57.033 37.3266C57.2965 37.5409 75.9685 37.5868 76.2474 37.3572C76.3559 37.2654 76.4178 36.6532 76.4178 35.7044V34.2046L68.7631 34.1587C63.4172 34.1434 61.0464 34.0669 60.8914 33.9597C60.5815 33.6996 60.597 21.242 60.9069 20.9819C61.0618 20.8441 63.1692 20.8135 68.6701 20.8135C72.8229 20.8288 76.2629 20.7982 76.3094 20.737C76.4798 20.584 76.4798 18.1659 76.3249 17.8752C76.1854 17.615 75.6586 17.5997 68.4687 17.5691L60.7674 17.5232L60.721 11.0801C60.69 5.81555 60.7209 4.60652 60.8914 4.45348C61.0464 4.34636 63.3862 4.26983 68.7631 4.25453L76.4178 4.20862V1.14781L66.7177 1.10189C61.3873 1.08659 56.9711 1.1172 56.9246 1.17841ZM93.6488 1.34676C93.4938 1.4998 93.3854 1.71406 93.3854 1.82118C93.3854 1.92831 93.2924 2.20379 93.1684 2.41804C93.0445 2.6476 92.6416 3.55054 92.2852 4.43818C91.6964 5.90737 91.4329 6.55014 90.8131 7.9122C90.6892 8.18768 90.5032 8.6468 90.3792 8.90697C89.8214 10.1925 89.6045 10.6516 89.4805 10.8659C89.4185 10.9883 89.3101 11.2026 89.2636 11.325C89.2171 11.4474 89.0776 11.7841 88.9537 12.0443C88.8297 12.3198 88.6283 12.8095 88.4888 13.1156C88.3338 13.437 88.1634 13.8043 88.0859 13.9267C88.0239 14.0491 87.9155 14.2634 87.869 14.3858C87.8225 14.5083 87.5436 15.1663 87.2647 15.8397C86.9857 16.5131 86.4279 17.8598 86.025 18.824C85.6221 19.7882 85.1263 20.9666 84.9249 21.4257C84.7079 21.8848 84.4445 22.497 84.3205 22.7725C83.7627 24.0274 83.5767 24.4406 83.3753 24.8232C83.2513 25.0375 83.1584 25.3282 83.1584 25.4507C83.1584 25.5731 83.0499 25.7567 82.9259 25.8639C82.802 25.971 82.6935 26.17 82.6935 26.323C82.6935 26.476 82.585 26.675 82.4611 26.7821C82.3371 26.8892 82.2286 27.1035 82.2286 27.2412C82.2286 27.3943 82.1357 27.7157 82.0117 27.9605C81.9032 28.1901 81.7018 28.6339 81.5778 28.9247C81.4384 29.2155 81.2679 29.6287 81.1749 29.8429C81.082 30.0572 80.8186 30.6694 80.6016 31.2203C80.3847 31.7712 80.1058 32.414 79.9973 32.6742C79.8733 32.919 79.7029 33.3017 79.6254 33.5159C79.424 33.9903 78.9746 34.9851 78.4477 36.1788C77.9984 37.1736 77.9519 37.495 78.2463 37.495C79.4549 37.5409 81.9497 37.495 82.0737 37.4184C82.1667 37.3725 82.2286 37.2042 82.2286 37.0511C82.2286 36.8981 82.3371 36.6838 82.4611 36.5767C82.585 36.4696 82.6935 36.2553 82.6935 36.1176C82.6935 35.9646 82.7865 35.6432 82.9104 35.3983C83.1739 34.8933 83.2668 34.679 84.6304 31.4499C85.2038 30.1031 85.8236 28.6492 86.025 28.236C86.211 27.8075 86.4124 27.3637 86.4744 27.2412C86.5209 27.1188 86.6913 26.7974 86.8463 26.5526L87.1407 26.0934L93.9432 26.0169C97.6776 25.971 100.761 25.9098 100.792 25.8945C100.808 25.8792 100.808 25.1599 100.792 24.2876L100.746 22.7265L94.8109 22.6806C88.2564 22.6347 88.4578 22.6806 88.9382 21.6859C89.2326 21.0737 89.403 20.6758 89.8989 19.4362C90.1158 18.8852 90.3637 18.3037 90.4412 18.1353C90.5187 17.967 90.7976 17.3548 91.0455 16.7886C91.309 16.207 91.5259 15.7173 91.5259 15.6714C91.5259 15.6408 91.7428 15.151 92.0063 14.5848C92.812 12.8095 92.8895 12.6259 92.9825 12.3963C93.029 12.2739 93.1374 12.0596 93.2149 11.9372C93.2924 11.8147 93.4473 11.4627 93.5868 11.172C93.8192 10.621 94.1911 9.74869 94.5475 8.95288C94.656 8.69271 94.8729 8.17237 95.0279 7.75916C95.2293 7.17761 95.3533 7.03987 95.6477 7.03987C95.9111 7.03987 96.0351 7.147 96.1126 7.45308C96.1745 7.69795 96.2675 7.94281 96.3295 8.03464C96.3915 8.11116 96.4999 8.35602 96.5619 8.57028C96.6239 8.78453 96.8718 9.36609 97.1043 9.87112C97.3367 10.3762 97.8481 11.5852 98.2509 12.5493C98.6538 13.5135 99.0877 14.5083 99.2116 14.7378C99.3356 14.9827 99.4286 15.3041 99.4286 15.4571C99.4286 15.5948 99.5371 15.8091 99.661 15.9162C99.785 16.0234 99.8934 16.1917 99.8934 16.2988C99.8934 16.4213 99.9864 16.6967 100.11 16.9416C100.327 17.3548 101.102 19.0077 101.52 19.9718C101.644 20.2167 101.923 20.8441 102.14 21.3492C102.993 23.2163 104.542 26.9658 104.542 27.1494C104.542 27.2565 104.651 27.4708 104.775 27.6391C104.898 27.7922 105.007 28.0371 105.007 28.1748C105.007 28.3125 105.115 28.5115 105.239 28.6186C105.363 28.7257 105.472 28.9706 105.472 29.1542C105.472 29.3379 105.58 29.5828 105.704 29.6899C105.828 29.797 105.937 29.9807 105.937 30.1031C105.937 30.2255 106.03 30.5163 106.154 30.7306C106.262 30.9601 106.495 31.4193 106.634 31.7559C106.789 32.0926 106.975 32.4752 107.052 32.5977C107.114 32.7201 107.223 32.9344 107.269 33.0568C107.378 33.3476 107.812 34.3576 108.478 35.8574C108.695 36.3472 108.881 36.791 108.881 36.8675C108.881 36.9287 109.005 37.0971 109.16 37.2348C109.392 37.4491 109.795 37.495 111.252 37.495C113.405 37.495 113.374 37.5409 112.522 35.6126C112.228 34.9392 111.98 34.2964 111.98 34.1893C111.98 34.0975 111.871 33.9291 111.747 33.822C111.624 33.7149 111.515 33.47 111.515 33.2863C111.515 33.1027 111.407 32.8578 111.283 32.7507C111.159 32.6436 111.05 32.3987 111.05 32.2151C111.05 32.0314 110.942 31.7865 110.818 31.6794C110.694 31.5723 110.585 31.4039 110.585 31.2968C110.585 31.1744 110.492 30.8989 110.368 30.654C110.012 29.996 109.005 27.7616 108.509 26.5985C108.385 26.323 108.215 25.9251 108.137 25.7108C108.044 25.4966 107.672 24.6395 107.331 23.7978C106.975 22.9561 106.587 22.0226 106.464 21.7318C106.324 21.441 106.154 21.0278 106.061 20.8135C105.751 20.0942 105.456 19.4362 105.239 18.9464C105.131 18.671 104.806 17.9517 104.542 17.3701C104.279 16.7733 103.953 16.054 103.814 15.7632C103.69 15.4724 103.519 15.1204 103.457 14.998C103.209 14.4776 101.133 9.64156 101.133 9.56504C101.133 9.45791 100.451 7.92751 100.126 7.30004C100.002 7.05518 99.8934 6.73379 99.8934 6.58075C99.8934 6.44301 99.785 6.22876 99.661 6.12163C99.5371 6.0145 99.4286 5.76963 99.4286 5.58598C99.4286 5.40234 99.3201 5.15747 99.1962 5.05034C99.0722 4.94321 98.9637 4.79017 98.9637 4.69835C98.9637 4.60652 98.8243 4.25453 98.6693 3.91784C98.1734 2.87716 97.6156 1.62223 97.5226 1.33145C97.4297 1.10189 97.1972 1.07128 95.6632 1.07128C94.1446 1.07128 93.8657 1.1172 93.6488 1.34676ZM114.878 1.17841C114.816 1.22433 114.769 9.38139 114.769 19.2831C114.769 33.0721 114.816 37.3266 114.955 37.4644C115.203 37.7092 118.209 37.7092 118.457 37.4644C118.596 37.3266 118.643 33.4853 118.643 21.1196C118.643 6.74909 118.674 4.92791 118.891 4.62183C119.123 4.28514 119.185 4.28514 122.501 4.28514C126.437 4.28514 127.072 4.40757 129.211 5.60129C129.893 5.98389 130.884 7.1317 131.349 8.06524C132.232 9.80991 132.248 12.1208 131.411 13.8655C130.977 14.7531 129.149 16.6814 128.715 16.6814C128.576 16.6814 128.39 16.758 128.281 16.8651C127.739 17.4007 126.949 17.5079 123.292 17.5538C121.293 17.5844 119.588 17.6762 119.511 17.7527C119.433 17.8292 119.666 18.2578 120.053 18.7781C120.425 19.2678 121.014 20.0789 121.355 20.584C121.68 21.089 122.486 22.2215 123.137 23.1091C125.802 26.7362 128.266 30.2255 128.669 30.9448C128.761 31.1285 129.025 31.4652 129.242 31.6947C129.459 31.9243 129.645 32.1538 129.645 32.2151C129.645 32.261 130.048 32.8425 130.543 33.4853C131.039 34.1281 131.814 35.2147 132.279 35.888C133.519 37.6939 133.395 37.648 135.812 37.648C137.439 37.648 137.888 37.6021 137.95 37.4338C137.997 37.3113 137.733 36.8216 137.346 36.3319C136.742 35.5207 135.734 34.0822 135.301 33.3935C135.223 33.2557 134.448 32.2151 133.596 31.052C132.201 29.1696 131.411 28.0677 129.645 25.5425C129.35 25.114 128.591 24.0886 127.987 23.2469C127.367 22.4205 126.856 21.6706 126.856 21.594C126.856 21.5175 126.747 21.3798 126.623 21.2727C126.484 21.1655 126.437 21.0278 126.499 20.9666C126.67 20.7982 128.297 20.3544 128.699 20.3544C129.552 20.3544 132.356 18.7781 133.441 17.6915C133.999 17.1406 134.975 15.7632 135.161 15.3041C135.208 15.1816 135.301 14.9674 135.363 14.8449C135.843 13.9573 136.06 12.6718 136.06 10.8659C136.06 8.72332 135.812 7.62143 135.037 6.27467C134.975 6.15224 134.851 5.90737 134.774 5.73903C134.603 5.35642 133.472 4.07088 132.759 3.44342C132.062 2.83125 130.745 1.98953 130.497 1.98953C130.388 1.98953 130.218 1.8824 130.11 1.75997C130.001 1.63754 129.769 1.53041 129.583 1.53041C129.412 1.5151 129.087 1.42328 128.87 1.30085C128.545 1.1172 127.289 1.08659 121.727 1.07128C118.008 1.07128 114.924 1.1172 114.878 1.17841Z" fill="#353535"/>
</g>
<defs>
<clipPath id="clip0_85_494">
<rect width="139" height="38" fill="white"/>
</clipPath>
</defs>
</svg>
