<svg width="251" height="50" viewBox="0 0 251 50" fill="none" xmlns="http://www.w3.org/2000/svg">
<g clip-path="url(#clip0_85_456)">
<mask id="mask0_85_456" style="mask-type:luminance" maskUnits="userSpaceOnUse" x="0" y="0" width="251" height="50">
<path d="M251 0H0V50H251V0Z" fill="white"/>
</mask>
<g mask="url(#mask0_85_456)">
<path d="M26.4251 15.0713L25.4066 20.4625H14.145V24.6647H25.1589L24.1403 30.0558H14.1484V34.6059H26.6391L25.6172 39.997H7.53125V15.0713H26.4251Z" fill="#353535"/>
<path d="M26.123 22.1984C26.123 21.0296 26.2928 19.996 26.6323 19.0974C26.9719 18.1989 27.5286 17.4389 28.3061 16.8208C29.0803 16.2025 30.0581 15.8175 31.2803 15.4897C32.4992 15.1621 33.993 15 35.7517 15H39.7478C40.4879 15 41.2926 15.0068 42.1583 15.0169C43.0275 15.0304 43.9883 15.0472 45.0442 15.0709L44.0766 20.4452C42.1515 20.4216 40.5389 20.4046 39.2352 20.3911C37.9313 20.381 36.8008 20.3743 35.8366 20.3743C34.7332 20.3743 33.9998 20.4925 33.6365 20.7256C33.2733 20.9586 33.0899 21.4146 33.0899 22.0902C33.0899 22.4179 33.1136 22.6848 33.1612 22.8976C33.2088 23.107 33.3072 23.2759 33.46 23.4043C33.6128 23.5326 33.8232 23.6441 34.0949 23.7354C34.3631 23.8299 34.7094 23.911 35.1338 23.9819L39.0789 24.6811C40.3691 24.9142 41.442 25.225 42.3009 25.6101C43.1565 25.9951 43.8457 26.485 44.3617 27.0829C44.8779 27.6774 45.2343 28.3732 45.4346 29.167C45.6349 29.9609 45.7334 30.883 45.7334 31.9335V32.528C45.7334 33.8354 45.5636 34.9635 45.2241 35.9094C44.8847 36.8551 44.3143 37.6321 43.5163 38.2401C42.7185 38.8481 41.6695 39.2906 40.3657 39.571C39.062 39.8514 37.4493 39.9932 35.5243 39.9932H31.6877C30.9612 39.9932 30.1497 39.9865 29.2568 39.9764C28.3638 39.9629 27.3216 39.946 26.123 39.9224L27.0602 34.5311C28.9139 34.5785 30.5334 34.6021 31.9186 34.6021H35.582C36.7567 34.6021 37.5409 34.4906 37.9416 34.2677C38.3388 34.0448 38.5527 33.4739 38.5527 32.7038C38.5527 32.3524 38.5222 32.0619 38.4645 31.8289C38.4067 31.5958 38.3014 31.4032 38.1487 31.2512C37.9958 31.0992 37.7718 30.9709 37.4798 30.8661C37.1845 30.7614 36.8178 30.6736 36.3696 30.6026L33.2359 30.0756C31.7795 29.819 30.5945 29.498 29.6812 29.113C28.7646 28.7279 28.0447 28.2482 27.5151 27.6774C26.9855 27.1065 26.6222 26.4208 26.4252 25.627C26.225 24.8331 26.1266 23.8874 26.1266 22.7895V22.195L26.123 22.1984Z" fill="#353535"/>
<path d="M45.5776 15.0576H67.7547V20.4555H59.552V39.9969H52.7211V20.4555H44.6406L45.5742 15.0576H45.5776Z" fill="#353535"/>
<path d="M89.7786 39.997H82.4621L78.3472 31.8765H75.0064V39.997H68.25V15.0713H78.7343C80.5167 15.0713 82.0411 15.2165 83.3075 15.5104C84.5739 15.8009 85.606 16.2637 86.4038 16.892C87.2017 17.5203 87.7823 18.3378 88.1455 19.341C88.5088 20.3443 88.6922 21.5704 88.6922 23.0162V23.8573C88.6922 25.6307 88.3221 27.0663 87.5854 28.1642C86.8452 29.262 85.7961 30.0895 84.4381 30.6503L89.7854 39.997H89.7786ZM81.9325 23.3709C81.9087 22.2494 81.6439 21.4928 81.1414 21.0942C80.6355 20.6989 79.7391 20.4997 78.449 20.4997H74.9996V26.5192H78.449C79.7391 26.5192 80.6355 26.3198 81.1414 25.9245C81.6439 25.5294 81.9087 24.7693 81.9325 23.6479V23.3675V23.3709Z" fill="#353535"/>
<path d="M109.507 15.0908V20.4786H96.8843V24.6773H107.888L106.869 30.0652H96.8843V34.6118H109.507V39.9997H90.2773V15.0908H109.507Z" fill="#353535"/>
<path d="M116.821 15.0918V34.6027H128.701L126.854 39.9939H110.004V15.0918H116.825H116.821Z" fill="#353535"/>
<path d="M144.217 34.6454H135.885L134.199 39.9927H127.344L136.096 15.0703H144.323L153.113 39.9927H145.942L144.221 34.6454H144.217ZM137.396 29.3252H142.67L140.032 20.4852L137.394 29.3252H137.396Z" fill="#353535"/>
<path d="M145.675 15.2825H188.155C188.25 15.2825 188.287 15.3998 188.213 15.4534L154.027 39.9819C153.953 40.0354 153.852 39.9618 153.883 39.8748L159.105 25.181C159.175 24.9802 159.105 24.7558 158.925 24.6353L145.623 15.4534C145.547 15.3998 145.583 15.2793 145.677 15.2793L145.675 15.2825Z" fill="#353535"/>
<path d="M181.005 39.8577L176.713 27.3809L174.292 29.1389L175.252 32.1091C175.278 32.1961 175.184 32.2665 175.106 32.2162L172.473 30.408L170.066 32.156L180.857 39.965C180.931 40.0185 181.033 39.9449 181.005 39.8577Z" fill="#353535"/>
<path d="M167.762 0.0632109L163.574 12.4263H166.628L167.676 9.54311C167.708 9.45939 167.826 9.46274 167.854 9.54646L168.816 12.4263H171.843L167.944 0.0665594C167.918 -0.0205043 167.792 -0.0238529 167.762 0.0665594V0.0632109Z" fill="#353535"/>
<path d="M189.506 15.0195H201.686C204.369 15.0195 206.317 15.5413 207.53 16.5814C208.74 17.6215 209.347 19.1732 209.347 21.2297V21.687C209.347 24.1197 208.369 25.8035 206.418 26.7385C207.594 27.1824 208.502 27.8668 209.135 28.7917C209.77 29.7167 210.09 30.9262 210.09 32.4237V33.0538C210.09 35.51 209.351 37.282 207.868 38.3695C206.384 39.457 204.16 39.9992 201.195 39.9992H189.51V15.0195H189.506ZM202.811 22.4765C202.811 21.7278 202.623 21.1958 202.245 20.8808C201.866 20.5657 201.221 20.4064 200.305 20.4064H195.821V25.0005H200.198C201.164 25.0005 201.839 24.8312 202.228 24.4923C202.617 24.1535 202.811 23.5979 202.811 22.8254V22.473V22.4765ZM195.824 34.5919H200.557C201.638 34.5919 202.405 34.4225 202.852 34.0838C203.298 33.7449 203.523 33.108 203.523 32.1729V31.7155C203.523 30.733 203.295 30.0724 202.835 29.7335C202.375 29.3948 201.58 29.2254 200.451 29.2254H195.827V34.5919H195.824Z" fill="#353535"/>
<path d="M229.581 15L228.539 20.4005H217.218L217.235 24.6016H228.306L227.28 30.0156H217.235V34.586H229.794L228.767 40H210.582V15H229.579H229.581Z" fill="#353535"/>
<path d="M230.082 15.0195H252.256L251.294 20.4064H244.099V39.9958H237.25L237.24 20.4064H229.117L230.082 15.0195Z" fill="#353535"/>
</g>
</g>
<defs>
<clipPath id="clip0_85_456">
<rect width="251" height="50" fill="white"/>
</clipPath>
</defs>
</svg>
