<svg width="87" height="81" viewBox="0 0 87 81" fill="none" xmlns="http://www.w3.org/2000/svg">
<path d="M49.6834 30.7248C51.242 28.7839 50.3097 25.1955 48.5822 24.8605C46.619 24.4798 46.1973 24.8523 45.177 24.9984C42.3081 25.4097 32.0595 29.6447 31.1439 29.7882C31.591 27.9679 32.0301 26.1461 32.5002 24.3316C32.5389 24.1825 61.6872 10.7121 63.1642 9.22606C63.9605 8.42541 64.4405 7.51008 64.3757 6.36933C64.3002 5.03781 63.612 3.94112 62.9571 2.8233C61.8281 0.896041 59.2434 -0.699787 56.2637 0.315338C53.8264 1.14575 35.9251 9.62297 34.4825 10.2693C34.4825 9.97673 34.3547 7.03419 34.2251 5.78606C34.1454 5.01457 33.4426 4.74525 32.8016 5.22115C32.4093 5.51264 26.2238 10.1964 26.182 10.3244C25.7248 11.733 25.2874 13.1474 24.8165 14.5517C24.7348 14.795 24.579 15.0891 24.3647 15.2076C21.1748 16.971 17.9477 18.6733 14.7741 20.4621C11.5473 22.281 4.3368 26.7835 4.41045 26.8934C4.47484 26.9899 8.64857 26.0166 10.3086 25.6951C10.0757 25.9226 8.26265 27.1687 8.2008 27.2816C8.34331 27.3111 16.3872 25.096 16.8272 25.0177C16.4019 25.4083 8.85516 29.5977 5.0393 31.6994C5.06704 31.7565 6.19244 31.7069 6.4475 31.7374C5.92352 32.0107 5.17766 32.3302 4.73229 32.5624C4.77229 32.6384 4.87926 32.8515 4.91975 32.9274C10.0812 31.6447 15.0766 29.906 20.1907 28.338C20.1907 28.463 19.7193 31.4452 19.4638 32.8191C19.245 33.9959 18.5856 34.746 17.3704 35.254C11.5094 37.7058 0.311001 43.7329 0 43.8897C0.145379 44.0039 4.5775 43.7477 4.78107 43.7079C4.70328 43.8347 2.48737 45.0454 2.33816 45.2116C2.54731 45.2658 15.971 43.012 17.5169 42.6553C17.5169 42.9366 11.2367 77.9313 11.2178 78.9445C11.1943 80.2013 14.0636 81.055 14.8493 79.382C15.1826 78.6722 26.1613 41.6111 27.9642 40.7469C32.503 38.5713 47.8902 32.9577 49.6834 30.7248Z" fill="#5D02E0"/>
<path d="M61.9939 65.6874C59.4073 61.5876 56.8063 57.4959 54.1857 53.4157C53.8869 52.9503 53.853 52.6629 54.2715 52.2346C55.1645 51.3195 55.9916 50.3447 56.8241 49.3773C59.4384 46.3386 75.6855 28.1251 80.9635 21.8718C82.1465 20.47 83.5152 19.2075 84.396 17.5735C85.08 16.3043 85.8882 15.0961 86.64 13.8601C86.7278 13.7159 86.8309 13.3706 86.801 13.3457C86.1007 13.8221 85.4006 14.2986 84.5965 14.8457C84.946 14.3116 85.2258 13.8835 85.506 13.4557C85.4554 13.4218 84.4913 13.9206 84.4503 13.8898C85.2343 12.5109 86.3753 11.3149 86.9884 9.7322C87.0402 9.59853 86.905 9.46441 86.7609 9.50238C86.4119 9.59413 86.1032 9.67843 85.7897 9.73752C85.2227 9.84446 84.5809 10.1113 84.0957 9.95656C83.6054 9.80011 83.185 9.76045 82.7456 9.8847C82.6356 9.91584 82.5206 9.8563 82.5018 9.7483C82.4713 9.57454 82.4401 9.39667 82.3935 9.1319C81.1164 10.0065 79.88 10.9649 78.7873 11.7132C78.8413 11.6303 79.1639 11.1118 79.3319 10.8546C78.9411 11.0594 78.3102 11.2979 78.0752 11.3663C78.0412 11.3334 79.7456 9.80542 80.517 8.56245C80.6116 8.4101 80.444 8.23389 80.2771 8.31166C79.6064 8.62473 78.8966 8.96831 78.238 9.27347C78.104 9.33544 77.9537 9.22989 77.9761 9.08983C78.0094 8.87976 78.0484 8.59511 78.0781 8.26367C77.8309 8.33718 75.0072 10.7689 73.9657 12.005C70.9958 15.5298 57.3763 32.507 53.5291 37.4625C52.1282 39.2667 50.8515 41.1586 49.5379 43.0231C49.2403 43.4453 48.9998 43.9035 48.6785 44.4622C48.6135 44.5753 48.444 44.5871 48.364 44.4832C44.3146 39.2173 40.5664 33.8821 36.472 28.6336C36.3656 28.4974 36.1281 28.5694 36.1347 28.7391C36.1878 30.0851 37.2961 30.9913 37.4903 32.2251C37.2139 32.0727 36.9784 31.943 36.7728 31.8297C36.6845 31.7811 36.5681 31.8061 36.5212 31.8927C36.0411 32.7815 36.1506 36.6434 36.1294 38.1226C36.122 38.6282 37.1407 40.4726 37.6099 41.1772C37.6582 41.2497 37.6438 41.346 37.5737 41.4C37.1297 41.7405 37.5519 42.0803 37.6454 42.4223C37.6781 42.5428 37.5711 42.6569 37.4415 42.6412C37.2705 42.6207 37.0722 42.5967 36.7839 42.5621C37.0549 43.1248 40.4045 49.3815 41.8783 52.0648C42.0681 52.4104 42.0329 52.683 41.8065 53.0014C41.0914 54.0054 40.4047 55.0275 39.7057 56.0417C36.8356 60.2055 33.9447 64.3564 31.1033 68.538C29.8018 70.4538 28.5798 72.4197 27.3588 74.3837C27.0943 74.8091 28.396 75.2459 29.6136 74.9942C30.5586 74.7985 31.4138 73.9905 31.6957 73.7026C34.3543 70.9895 39.406 65.7351 40.8922 64.1909C41.0213 64.0566 41.2535 64.1743 41.2076 64.3512C41.1611 64.5314 41.0992 64.7432 41.0216 64.9731C40.9604 65.1543 41.1957 65.292 41.3302 65.1512C42.3264 64.1087 44.2845 62.0757 45.77 60.707C45.858 60.6257 46.0012 60.6507 46.0593 60.7539C46.1611 60.9342 52.664 68.9265 54.8098 71.6761C54.8592 71.6473 54.9207 70.5866 54.9918 69.218C55.0369 69.196 59.3069 74.9333 60.2346 75.9575C60.405 76.1455 60.8506 76.2327 61.1217 76.1729C61.3336 76.1262 61.4734 75.7801 61.6433 75.5654C61.7731 75.4016 61.8673 75.1927 62.0335 75.0776C62.6858 74.6259 63.3681 74.2191 63.6288 73.425C63.7564 73.0362 63.9232 72.6592 64.0909 72.2845C64.5659 71.2229 64.6508 70.1761 64.0326 69.1391C63.3485 67.9908 62.7076 66.8183 61.9939 65.6874Z" fill="#5D02E0"/>
</svg>
