<svg width="154" height="154" viewBox="0 0 154 154" fill="none" xmlns="http://www.w3.org/2000/svg">
<circle cx="77" cy="77" r="73.5" stroke="#5D02E0" stroke-width="7"/>
<path d="M83.3965 66.3964C85.0089 64.2867 84.0444 60.3864 82.2574 60.0222C80.2265 59.6084 79.7903 60.0133 78.7348 60.1721C75.7669 60.6192 65.1649 65.2224 64.2178 65.3784C64.6804 63.3998 65.1345 61.4196 65.6209 59.4473C65.6609 59.2852 95.8143 44.6435 97.3423 43.0283C98.166 42.158 98.6625 41.1631 98.5954 39.9232C98.5174 38.4759 97.8055 37.2838 97.128 36.0688C95.9601 33.974 93.2862 32.2394 90.2038 33.3428C87.6825 34.2454 69.1639 43.4597 67.6715 44.1622C67.6715 43.8442 67.5393 40.6458 67.4052 39.2892C67.3228 38.4506 66.5957 38.1579 65.9326 38.6751C65.5269 38.992 59.1281 44.083 59.0848 44.2222C58.6119 45.7532 58.1594 47.2906 57.6722 48.8171C57.5877 49.0815 57.4265 49.4012 57.2049 49.53C53.905 51.4467 50.5665 53.297 47.2835 55.2414C43.9455 57.2184 36.4863 62.1124 36.5625 62.2319C36.6291 62.3368 40.9468 61.2788 42.6641 60.9294C42.4232 61.1766 40.5476 62.5311 40.4836 62.6539C40.631 62.6859 48.9523 60.2782 49.4075 60.1931C48.9675 60.6176 41.1605 65.1713 37.2131 67.4558C37.2418 67.5178 38.406 67.464 38.6698 67.4971C38.1278 67.7941 37.3562 68.1414 36.8955 68.3938C36.9369 68.4764 37.0475 68.7081 37.0894 68.7906C42.4288 67.3963 47.5965 65.5064 52.8869 63.8021C52.8869 63.938 52.3993 67.1795 52.1349 68.6728C51.9086 69.9519 51.2265 70.7673 49.9694 71.3195C43.9063 73.9845 32.3217 80.5356 32 80.706C32.1504 80.8302 36.7353 80.5517 36.9459 80.5085C36.8655 80.6463 34.5731 81.9623 34.4188 82.143C34.6351 82.2018 48.5217 79.752 50.121 79.3644C50.121 79.6701 43.6241 117.708 43.6046 118.809C43.5803 120.175 46.5485 121.103 47.3613 119.285C47.7062 118.513 59.0633 78.2293 60.9284 77.29C65.6238 74.9252 81.5415 68.8235 83.3965 66.3964Z" fill="#5D02E0"/>
<path d="M96.1327 104.4C93.457 99.9436 90.7663 95.496 88.0553 91.0611C87.7462 90.5552 87.7111 90.2428 88.144 89.7772C89.0679 88.7826 89.9235 87.723 90.7846 86.6715C93.4892 83.3686 110.296 63.5714 115.756 56.7743C116.98 55.2506 118.396 53.8784 119.307 52.1022C120.015 50.7227 120.851 49.4095 121.629 48.066C121.72 47.9092 121.826 47.5339 121.795 47.5068C121.071 48.0247 120.347 48.5426 119.515 49.1373C119.876 48.5568 120.166 48.0914 120.456 47.6264C120.403 47.5896 119.406 48.1317 119.363 48.0982C120.174 46.5994 121.355 45.2995 121.989 43.5791C122.043 43.4338 121.903 43.2881 121.754 43.3293C121.393 43.4291 121.073 43.5207 120.749 43.5849C120.163 43.7012 119.499 43.9912 118.997 43.823C118.489 43.6529 118.055 43.6098 117.6 43.7449C117.486 43.7787 117.367 43.714 117.348 43.5966C117.316 43.4078 117.284 43.2144 117.236 42.9266C115.915 43.8773 114.636 44.9191 113.505 45.7324C113.561 45.6423 113.895 45.0787 114.069 44.7991C113.664 45.0217 113.012 45.281 112.769 45.3553C112.733 45.3195 114.497 43.6587 115.295 42.3077C115.392 42.1421 115.219 41.9505 115.046 42.0351C114.353 42.3754 113.618 42.7488 112.937 43.0805C112.798 43.1479 112.643 43.0331 112.666 42.8809C112.7 42.6526 112.741 42.3432 112.772 41.9829C112.516 42.0628 109.595 44.706 108.517 46.0496C105.445 49.8809 91.3559 68.3343 87.3761 73.7207C85.9268 75.6818 84.6061 77.7382 83.2472 79.7648C82.9394 80.2237 82.6905 80.7217 82.3582 81.329C82.2909 81.452 82.1157 81.4647 82.0328 81.3518C77.8438 75.6281 73.9664 69.8289 69.7307 64.1241C69.6208 63.9761 69.3751 64.0543 69.3819 64.2387C69.4368 65.7018 70.5833 66.6868 70.7842 68.0278C70.4982 67.8622 70.2547 67.7213 70.0419 67.5981C69.9506 67.5452 69.8302 67.5724 69.7817 67.6666C69.2851 68.6326 69.3983 72.8304 69.3764 74.4382C69.3687 74.9877 70.4226 76.9925 70.9079 77.7583C70.9579 77.8372 70.943 77.9419 70.8705 78.0005C70.4112 78.3706 70.8479 78.74 70.9447 79.1118C70.9784 79.2427 70.8678 79.3667 70.7338 79.3497C70.5568 79.3274 70.3517 79.3014 70.0535 79.2638C70.3338 79.8754 73.7989 86.6761 75.3235 89.5927C75.5199 89.9684 75.4835 90.2646 75.2493 90.6107C74.5095 91.702 73.7991 92.813 73.076 93.9154C70.1069 98.4413 67.1163 102.953 64.177 107.498C62.8306 109.581 61.5665 111.718 60.3033 113.852C60.0297 114.315 61.3763 114.789 62.6359 114.516C63.6135 114.303 64.4982 113.425 64.7898 113.112C67.5401 110.163 72.7659 104.452 74.3034 102.773C74.437 102.627 74.6772 102.755 74.6297 102.947C74.5816 103.143 74.5176 103.374 74.4373 103.623C74.3739 103.82 74.6174 103.97 74.7565 103.817C75.7871 102.684 77.8126 100.474 79.3494 98.9863C79.4404 98.898 79.5886 98.9252 79.6486 99.0374C79.7539 99.2333 86.4812 107.921 88.7009 110.909C88.752 110.878 88.8156 109.725 88.8892 108.237C88.9359 108.214 93.3531 114.45 94.3128 115.563C94.4891 115.767 94.95 115.862 95.2305 115.797C95.4497 115.746 95.5942 115.37 95.7701 115.137C95.9043 114.959 96.0018 114.732 96.1737 114.607C96.8485 114.116 97.5543 113.673 97.824 112.81C97.9561 112.388 98.1285 111.978 98.302 111.571C98.7934 110.417 98.8813 109.279 98.2418 108.152C97.5341 106.904 96.871 105.629 96.1327 104.4Z" fill="#5D02E0"/>
</svg>
