<svg width="185" height="66" viewBox="0 0 185 66" fill="none" xmlns="http://www.w3.org/2000/svg">
<g clip-path="url(#clip0_85_440)">
<mask id="mask0_85_440" style="mask-type:luminance" maskUnits="userSpaceOnUse" x="0" y="0" width="185" height="66">
<path d="M185 0H0V66H185V0Z" fill="white"/>
</mask>
<g mask="url(#mask0_85_440)">
<mask id="mask1_85_440" style="mask-type:luminance" maskUnits="userSpaceOnUse" x="0" y="0" width="185" height="66">
<path d="M185 0H0V66H185V0Z" fill="white"/>
</mask>
<g mask="url(#mask1_85_440)">
<path fill-rule="evenodd" clip-rule="evenodd" d="M120.938 46.9875V12.3067C120.938 0.537016 133.587 -1.99033 142.617 1.36659V7.95641C136.411 5.48406 129.438 6.05388 129.438 13.7284H139.527V20.3123H129.438V46.8588L120.938 46.9875Z" fill="#353535"/>
<path fill-rule="evenodd" clip-rule="evenodd" d="M160.988 8.58496H167.271L168.561 13.7333H176.375V20.3125H169.493V35.6404C169.493 38.7107 170.849 40.2474 173.561 40.2505H177.869V46.831H169.459C163.813 46.831 160.989 43.8742 160.989 37.9607L160.988 8.58496Z" fill="#353535"/>
<path d="M154.511 13.7305H146.01V46.8258H154.511V13.7305Z" fill="#353535"/>
<path d="M154.509 1.75293H146.008V8.58495H154.509V1.75293Z" fill="#353535"/>
<path fill-rule="evenodd" clip-rule="evenodd" d="M185.001 46.8352C177.532 58.351 164.38 65.9985 149.403 65.9985C134.425 65.9985 121.282 58.351 113.809 46.834C122.586 54.739 135.283 59.7047 149.403 59.7047C163.522 59.7047 176.223 54.7355 185.001 46.834" fill="#353535"/>
<path d="M1.04945 39.2219V34.7007C3.50016 35.6602 6.32941 36.1395 9.53719 36.1387C11.9305 36.1387 13.1271 35.3864 13.1271 33.8817C13.1271 32.508 12.317 31.8282 10.7111 31.8282H6.71792C2.23931 31.8266 0 29.6339 0 25.2501C0 20.7414 3.27081 18.4871 9.81242 18.4871C12.4757 18.4691 15.1235 18.8834 17.648 19.7133V24.2345C15.1949 23.2738 12.5396 22.7988 9.66404 22.7988C6.65091 22.7988 5.15272 23.5488 5.15272 25.0559C5.14793 26.4186 6.02307 27.1007 7.77814 27.1023H11.3405C16.2372 27.1023 18.6871 29.2915 18.6903 33.6699C18.6903 38.1942 15.569 40.4539 9.32659 40.4493C6.25841 40.4493 3.49936 40.0401 1.04945 39.2219ZM22.5745 40.2504V18.6837H26.8824L27.5334 21.3959C30.0631 19.5881 32.5808 18.6837 35.0722 18.6837C37.8476 18.6837 39.8165 19.6696 40.9788 21.6416C43.7885 19.6665 46.4259 18.6805 48.891 18.6837C53.5435 18.6837 55.8694 21.4138 55.8686 26.8741V40.2504H50.2958V26.6776C50.2958 24.2875 49.2615 23.0909 47.193 23.0878C45.5368 23.0878 43.8061 24.018 42.0007 25.8784V40.2504H36.44V26.7314C36.44 24.2984 35.4177 23.0808 33.373 23.0784C31.6068 23.0784 29.8649 24.0086 28.1473 25.8691V40.2504H22.5745ZM59.8964 33.5353C59.8964 29.114 63.0875 26.9042 69.4695 26.9057C71.1878 26.8882 72.904 27.0237 74.5971 27.3106V25.8948C74.5971 23.9673 72.6853 23.0028 68.8616 23.0012C66.4303 23.0047 64.0121 23.3511 61.6818 24.0297V19.7122C64.0128 19.0374 66.4307 18.6926 68.8616 18.6884C76.3973 18.6884 80.1627 21.0558 80.1579 25.7907V40.2504H77.3434L74.9501 38.7293C73.073 39.7366 70.9646 40.2601 68.8234 40.2504C62.8713 40.2504 59.8964 38.012 59.8988 33.5353M74.6007 31.4175C73.1947 31.1449 71.4895 31.0127 69.4731 31.0127C66.7951 31.0088 65.456 31.8259 65.456 33.464C65.456 35.1021 66.5773 35.9246 68.8198 35.9316C71.0838 35.9316 73.0096 35.3708 74.5971 34.2491L74.6007 31.4175ZM85.5799 40.2504V18.6837H89.8877L90.5746 21.4322C92.5124 19.6037 94.5586 18.6876 96.7134 18.6837V23.0784C94.6392 23.0784 92.7844 23.9872 91.149 25.8047V40.2504H85.5799ZM100.158 15.1934H104.275L105.121 18.6837H110.24V22.9965H105.731V32.914C105.731 34.9258 106.62 35.9328 108.397 35.9351H110.24V40.2504H105.711C102.009 40.2504 100.158 38.3116 100.158 34.434V15.1934Z" fill="#353535"/>
</g>
</g>
</g>
<defs>
<clipPath id="clip0_85_440">
<rect width="185" height="66" fill="white"/>
</clipPath>
</defs>
</svg>
